<mxfile host="65bd71144e">
    <diagram id="NaFQybaiwCOL1dCySTVG" name="PÃ¡gina-1">
        <mxGraphModel dx="417" dy="411" grid="1" gridSize="10" guides="1" tooltips="1" connect="1" arrows="1" fold="1" page="1" pageScale="1" pageWidth="1169" pageHeight="827" math="0" shadow="0">
            <root>
                <mxCell id="0"/>
                <mxCell id="1" parent="0"/>
                <mxCell id="2" value="INICIO" style="ellipse;whiteSpace=wrap;html=1;fillColor=#60a917;fontColor=#ffffff;strokeColor=#2D7600;" vertex="1" parent="1">
                    <mxGeometry x="170" y="60" width="110" height="60" as="geometry"/>
                </mxCell>
                <mxCell id="4" value="" style="endArrow=classic;html=1;" edge="1" parent="1">
                    <mxGeometry width="50" height="50" relative="1" as="geometry">
                        <mxPoint x="229.5" y="120" as="sourcePoint"/>
                        <mxPoint x="229.5" y="180" as="targetPoint"/>
                        <Array as="points">
                            <mxPoint x="229.5" y="150"/>
                        </Array>
                    </mxGeometry>
                </mxCell>
                <mxCell id="5" value="R" style="shape=parallelogram;perimeter=parallelogramPerimeter;whiteSpace=wrap;html=1;fixedSize=1;fillColor=#d80073;fontColor=#ffffff;strokeColor=#A50040;" vertex="1" parent="1">
                    <mxGeometry x="160" y="180" width="120" height="60" as="geometry"/>
                </mxCell>
                <mxCell id="7" value="" style="endArrow=classic;html=1;" edge="1" parent="1">
                    <mxGeometry width="50" height="50" relative="1" as="geometry">
                        <mxPoint x="219.5" y="240" as="sourcePoint"/>
                        <mxPoint x="219.5" y="290" as="targetPoint"/>
                    </mxGeometry>
                </mxCell>
                <mxCell id="8" value="A=PI*R&lt;sup&gt;2&lt;/sup&gt;&lt;br&gt;P=2*PI*R" style="rounded=0;whiteSpace=wrap;html=1;fillColor=#1ba1e2;fontColor=#ffffff;strokeColor=#006EAF;" vertex="1" parent="1">
                    <mxGeometry x="160" y="300" width="120" height="60" as="geometry"/>
                </mxCell>
                <mxCell id="9" value="" style="endArrow=classic;html=1;" edge="1" parent="1">
                    <mxGeometry width="50" height="50" relative="1" as="geometry">
                        <mxPoint x="219.5" y="350" as="sourcePoint"/>
                        <mxPoint x="219.5" y="401" as="targetPoint"/>
                    </mxGeometry>
                </mxCell>
                <mxCell id="10" value="A.P" style="shape=document;whiteSpace=wrap;html=1;boundedLbl=1;fillColor=#0050ef;fontColor=#ffffff;strokeColor=#001DBC;" vertex="1" parent="1">
                    <mxGeometry x="160" y="400" width="120" height="80" as="geometry"/>
                </mxCell>
                <mxCell id="11" value="" style="endArrow=classic;html=1;" edge="1" parent="1">
                    <mxGeometry width="50" height="50" relative="1" as="geometry">
                        <mxPoint x="229.5" y="480" as="sourcePoint"/>
                        <mxPoint x="229.5" y="540" as="targetPoint"/>
                    </mxGeometry>
                </mxCell>
                <mxCell id="12" value="FIN" style="ellipse;whiteSpace=wrap;html=1;fillColor=#a20025;fontColor=#ffffff;strokeColor=#6F0000;" vertex="1" parent="1">
                    <mxGeometry x="175" y="540" width="90" height="50" as="geometry"/>
                </mxCell>
            </root>
        </mxGraphModel>
    </diagram>
</mxfile>